HIERARCHY
ROOT Hips
{
    OFFSET 0.000000 0.000000 0.000000
    CHANNELS 6 Xposition Yposition Zposition Zrotation Xrotation Yrotation
    JOINT Spine
    {
        OFFSET -0.000000 0.082739 0.000000
        CHANNELS 3 Zrotation Xrotation Yrotation
        JOINT Spine1
        {
            OFFSET 0.000000 0.228753 0.000000
            CHANNELS 3 Zrotation Xrotation Yrotation
            JOINT Neck
            {
                OFFSET -0.000000 0.243275 0.000000
                CHANNELS 3 Zrotation Xrotation Yrotation
                JOINT Head
                {
                    OFFSET -0.000000 0.148531 0.019347
                    CHANNELS 3 Zrotation Xrotation Yrotation
                    End Site
                    {
                        OFFSET 0.000000 0.193473 0.000000
                    }
                }
            }
            JOINT LeftShoulder
            {
                OFFSET 0.038662 0.198558 -0.002825
                CHANNELS 3 Zrotation Xrotation Yrotation
                JOINT LeftArm
                {
                    OFFSET 0.115149 -0.000000 0.000000
                    CHANNELS 3 Zrotation Xrotation Yrotation
                    JOINT LeftForeArm
                    {
                        OFFSET 0.287323 -0.000000 0.000000
                        CHANNELS 3 Zrotation Xrotation Yrotation
                        JOINT LeftHand
                        {
                            OFFSET 0.292989 0.000000 0.000000
                            CHANNELS 3 Zrotation Xrotation Yrotation
                            JOINT LeftHandThumb1
                            {
                                OFFSET 0.020218 -0.022975 0.032165
                                CHANNELS 3 Zrotation Xrotation Yrotation
                                JOINT LeftHandThumb2
                                {
                                    OFFSET 0.030536 0.000000 -0.000000
                                    CHANNELS 3 Zrotation Xrotation Yrotation
                                    JOINT LeftHandThumb3
                                    {
                                        OFFSET 0.026099 -0.000000 0.000000
                                        CHANNELS 3 Zrotation Xrotation Yrotation
                                        End Site
                                        {
                                            OFFSET 0.025248 0.000000 0.000000
                                        }
                                    }
                                }
                            }
                            JOINT LeftHandIndex1
                            {
                                OFFSET 0.082710 0.000000 0.032165
                                CHANNELS 3 Zrotation Xrotation Yrotation
                                JOINT LeftHandIndex2
                                {
                                    OFFSET 0.045950 0.000000 0.000000
                                    CHANNELS 3 Zrotation Xrotation Yrotation
                                    JOINT LeftHandIndex3
                                    {
                                        OFFSET 0.022975 0.000000 -0.000000
                                        CHANNELS 3 Zrotation Xrotation Yrotation
                                        End Site
                                        {
                                            OFFSET 0.022225 0.000000 0.000000
                                        }
                                    }
                                }
                            }
                            JOINT LeftHandMiddle1
                            {
                                OFFSET 0.082710 0.000000 0.010660
                                CHANNELS 3 Zrotation Xrotation Yrotation
                                JOINT LeftHandMiddle2
                                {
                                    OFFSET 0.050545 0.000000 0.000000
                                    CHANNELS 3 Zrotation Xrotation Yrotation
                                    JOINT LeftHandMiddle3
                                    {
                                        OFFSET 0.027570 -0.000000 0.000000
                                        CHANNELS 3 Zrotation Xrotation Yrotation
                                        End Site
                                        {
                                            OFFSET 0.026670 0.000000 0.000000
                                        }
                                    }
                                }
                            }
                            JOINT LeftHandRing1
                            {
                                OFFSET 0.078115 0.000000 -0.010660
                                CHANNELS 3 Zrotation Xrotation Yrotation
                                JOINT LeftHandRing2
                                {
                                    OFFSET 0.045950 0.000000 0.000000
                                    CHANNELS 3 Zrotation Xrotation Yrotation
                                    JOINT LeftHandRing3
                                    {
                                        OFFSET 0.022975 0.000000 0.000000
                                        CHANNELS 3 Zrotation Xrotation Yrotation
                                        End Site
                                        {
                                            OFFSET 0.022225 0.000000 0.000000
                                        }
                                    }
                                }
                            }
                            JOINT LeftHandPinky1
                            {
                                OFFSET 0.073520 -0.000000 -0.032165
                                CHANNELS 3 Zrotation Xrotation Yrotation
                                JOINT LeftHandPinky2
                                {
                                    OFFSET 0.036760 0.000000 0.000000
                                    CHANNELS 3 Zrotation Xrotation Yrotation
                                    JOINT LeftHandPinky3
                                    {
                                        OFFSET 0.018380 -0.000000 -0.000000
                                        CHANNELS 3 Zrotation Xrotation Yrotation
                                        End Site
                                        {
                                            OFFSET 0.017780 0.000000 0.000000
                                        }
                                    }
                                }
                            }
                        }
                    }
                }
            }
            JOINT RightShoulder
            {
                OFFSET -0.038662 0.198558 -0.002825
                CHANNELS 3 Zrotation Xrotation Yrotation
                JOINT RightArm
                {
                    OFFSET -0.115149 -0.000000 -0.000000
                    CHANNELS 3 Zrotation Xrotation Yrotation
                    JOINT RightForeArm
                    {
                        OFFSET -0.287323 0.000000 -0.000000
                        CHANNELS 3 Zrotation Xrotation Yrotation
                        JOINT RightHand
                        {
                            OFFSET -0.292989 0.000000 0.000000
                            CHANNELS 3 Zrotation Xrotation Yrotation
                            JOINT RightHandThumb1
                            {
                                OFFSET -0.020218 -0.022975 0.032165
                                CHANNELS 3 Zrotation Xrotation Yrotation
                                JOINT RightHandThumb2
                                {
                                    OFFSET -0.030536 -0.000000 0.000000
                                    CHANNELS 3 Zrotation Xrotation Yrotation
                                    JOINT RightHandThumb3
                                    {
                                        OFFSET -0.026100 -0.000000 0.000000
                                        CHANNELS 3 Zrotation Xrotation Yrotation
                                        End Site
                                        {
                                            OFFSET -0.025248 0.000000 0.000000
                                        }
                                    }
                                }
                            }
                            JOINT RightHandIndex1
                            {
                                OFFSET -0.082710 0.000000 0.032165
                                CHANNELS 3 Zrotation Xrotation Yrotation
                                JOINT RightHandIndex2
                                {
                                    OFFSET -0.045950 -0.000000 -0.000000
                                    CHANNELS 3 Zrotation Xrotation Yrotation
                                    JOINT RightHandIndex3
                                    {
                                        OFFSET -0.022975 -0.000000 0.000000
                                        CHANNELS 3 Zrotation Xrotation Yrotation
                                        End Site
                                        {
                                            OFFSET -0.022225 0.000000 0.000000
                                        }
                                    }
                                }
                            }
                            JOINT RightHandMiddle1
                            {
                                OFFSET -0.082710 0.000000 0.010660
                                CHANNELS 3 Zrotation Xrotation Yrotation
                                JOINT RightHandMiddle2
                                {
                                    OFFSET -0.050545 -0.000000 -0.000000
                                    CHANNELS 3 Zrotation Xrotation Yrotation
                                    JOINT RightHandMiddle3
                                    {
                                        OFFSET -0.027570 -0.000000 -0.000000
                                        CHANNELS 3 Zrotation Xrotation Yrotation
                                        End Site
                                        {
                                            OFFSET -0.026670 0.000000 0.000000
                                        }
                                    }
                                }
                            }
                            JOINT RightHandRing1
                            {
                                OFFSET -0.078115 -0.000000 -0.010660
                                CHANNELS 3 Zrotation Xrotation Yrotation
                                JOINT RightHandRing2
                                {
                                    OFFSET -0.045950 -0.000000 -0.000000
                                    CHANNELS 3 Zrotation Xrotation Yrotation
                                    JOINT RightHandRing3
                                    {
                                        OFFSET -0.022975 -0.000000 0.000000
                                        CHANNELS 3 Zrotation Xrotation Yrotation
                                        End Site
                                        {
                                            OFFSET -0.022225 0.000000 0.000000
                                        }
                                    }
                                }
                            }
                            JOINT RightHandPinky1
                            {
                                OFFSET -0.073520 -0.000000 -0.032165
                                CHANNELS 3 Zrotation Xrotation Yrotation
                                JOINT RightHandPinky2
                                {
                                    OFFSET -0.036760 -0.000000 0.000000
                                    CHANNELS 3 Zrotation Xrotation Yrotation
                                    JOINT RightHandPinky3
                                    {
                                        OFFSET -0.018380 -0.000000 -0.000000
                                        CHANNELS 3 Zrotation Xrotation Yrotation
                                        End Site
                                        {
                                            OFFSET -0.017780 0.000000 0.000000
                                        }
                                    }
                                }
                            }
                        }
                    }
                }
            }
        }
    }
    JOINT LeftUpLeg
    {
        OFFSET 0.096737 0.000000 -0.000000
        CHANNELS 3 Zrotation Xrotation Yrotation
        JOINT LeftLeg
        {
            OFFSET 0.000000 -0.425128 0.000000
            CHANNELS 3 Zrotation Xrotation Yrotation
            JOINT LeftFoot
            {
                OFFSET 0.000000 -0.463118 0.000000
                CHANNELS 3 Zrotation Xrotation Yrotation
                JOINT LeftToeBase
                {
                    OFFSET 0.000000 -0.062879 0.145105
                    CHANNELS 3 Zrotation Xrotation Yrotation
                    End Site
                    {
                        OFFSET 0.000000 0.000000 0.038695
                    }
                }
            }
        }
    }
    JOINT RightUpLeg
    {
        OFFSET -0.096737 -0.000000 -0.000000
        CHANNELS 3 Zrotation Xrotation Yrotation
        JOINT RightLeg
        {
            OFFSET 0.000000 -0.425128 -0.000000
            CHANNELS 3 Zrotation Xrotation Yrotation
            JOINT RightFoot
            {
                OFFSET 0.000000 -0.463118 -0.000000
                CHANNELS 3 Zrotation Xrotation Yrotation
                JOINT RightToeBase
                {
                    OFFSET 0.000000 -0.062879 0.145105
                    CHANNELS 3 Zrotation Xrotation Yrotation
                    End Site
                    {
                        OFFSET 0.000000 0.000000 0.038695
                    }
                }
            }
        }
    }
}
MOTION
Frames:    4
Frame Time:    0.016667
-0.980764    0.908241    -0.220889    2.738866    2.059037    -7.648601    -0.066811    -6.177663    -0.620827    -2.800527    11.579062    -0.042836    6.930150    1.969263    14.499339    -4.679435    -23.373590    11.745846    -3.063256    3.791998    -5.791778    -49.752686    -1.704095    0.998981    9.641010    9.718559    -45.180199    76.481758    2.925176    16.234154    26.979935    37.716591    -45.754250    -22.867779    -4.684805    22.867783    -0.000000    0.000000    -0.000000    -3.147085    17.974562    -2.028635    -2.993343    -0.000001    -0.000004    -2.993340    0.000000    0.000003    -2.993344    0.000005    -1.500341    -2.993339    -0.000003    -0.000006    -2.993339    -0.000001    0.000003    -2.993343    0.000001    1.000236    -2.993342    0.000002    0.000003    -2.993342    -0.000001    -0.000002    -3.147082    -17.974556    1.028415    -2.993342    -0.000001    -0.000000    -2.993337    -0.000007    -0.000004    -1.344639    6.548821    1.749477    60.123711    29.033274    -6.627641    5.284050    -26.760860    11.607304    -5.363853    -1.182698    -9.871437    -26.979933    37.716579    45.754250    22.867783    -4.684812    -22.867790    -0.000000    0.000000    -0.000000    3.147083    17.974556    2.028639    2.993344    0.000000    -0.000000    2.993340    0.000001    -0.000000    2.993343    0.000001    1.500347    2.993340    -0.000001    0.000000    2.993344    -0.000000    -0.000002    2.993343    0.000000    -1.000231    2.993337    -0.000001    -0.000001    2.993333    -0.000001    0.000001    3.147089    -17.974556    -1.028410    2.993336    -0.000001    0.000001    2.993339    -0.000001    -0.000001    6.007366    -9.658961    -5.597749    0.000001    12.706091    -0.000001    -14.307837    -10.660662    -31.706640    0.000000    -0.029848    0.000004    -13.286219    -5.984503    -13.775569    -0.000000    29.606104    0.000003    10.443918    -23.802502    -9.591385    -0.000000    2.275400    0.000003    
-0.985653    0.907429    -0.223249    2.885772    1.881598    -7.473802    -0.051449    -6.233217    -0.473845    -3.176368    11.699630    0.182790    6.900175    2.083144    14.395805    -4.666838    -23.416895    11.659104    -3.215455    3.695436    -5.797752    -49.886395    -1.538483    0.890904    9.637231    9.644627    -45.385426    76.569138    2.885092    16.050802    26.909925    37.782310    -45.882721    -22.867785    -4.684804    22.867785    -0.000000    0.000000    -0.000000    -3.246168    17.972929    -2.126653    -3.087613    0.000000    0.000002    -3.087610    -0.000001    -0.000002    -3.087609    -0.000001    -1.564640    -3.087611    0.000000    0.000000    -3.087611    -0.000002    -0.000003    -3.087610    -0.000002    1.043090    -3.087610    -0.000005    -0.000002    -3.087611    0.000004    0.000001    -3.246170    -17.972944    1.083543    -3.087612    0.000005    0.000000    -3.087610    -0.000002    0.000001    -1.494073    6.659006    1.825289    60.073734    29.048973    -6.625859    5.260108    -26.685410    11.585280    -5.468523    -1.100842    -9.801048    -26.909935    37.782310    45.882729    22.867792    -4.684807    -22.867786    -0.000000    0.000000    -0.000000    3.246162    17.972929    2.126647    3.087614    0.000003    -0.000001    3.087616    0.000002    -0.000000    3.087609    -0.000003    1.564641    3.087609    0.000000    0.000001    3.087619    0.000001    -0.000001    3.087618    0.000000    -1.043094    3.087608    0.000002    0.000002    3.087606    -0.000001    0.000000    3.246179    -17.972931    -1.083550    3.087605    -0.000002    0.000002    3.087615    -0.000002    -0.000003    6.074877    -9.734923    -5.922739    -0.000000    12.868621    -0.000000    -14.251982    -10.646199    -31.415730    0.000001    -0.017398    0.000002    -13.273186    -5.974102    -14.177911    -0.000001    29.903744    0.000002    10.603677    -24.208326    -9.231509    -0.000000    2.138073    0.000002    
-0.992233    0.906325    -0.226532    2.762111    1.583037    -7.021706    -0.040413    -6.007334    -0.386148    -3.431665    11.825369    0.327530    6.960907    2.135504    14.201130    -4.548075    -23.570946    11.500981    -3.292247    3.672059    -5.943122    -49.871525    -1.422600    0.723316    9.802069    9.646027    -45.876469    76.606201    2.918961    15.826939    26.825270    37.862671    -46.039200    -22.867792    -4.684813    22.867783    -0.000000    0.000000    -0.000000    -3.363292    17.970949    -2.246902    -3.199036    0.000000    0.000003    -3.199039    0.000000    0.000004    -3.199034    -0.000003    -1.642842    -3.199036    0.000003    0.000008    -3.199035    -0.000002    -0.000005    -3.199036    0.000002    1.095223    -3.199039    0.000002    0.000002    -3.199034    -0.000004    -0.000003    -3.363296    -17.970942    1.151677    -3.199035    -0.000001    -0.000000    -3.199037    -0.000001    -0.000001    -1.591968    6.765115    1.773725    60.180202    29.115644    -6.655674    5.371726    -26.639677    11.843929    -5.602427    -1.039701    -9.874741    -26.825262    37.862679    46.039192    22.867796    -4.684813    -22.867783    -0.000000    0.000000    -0.000000    3.363296    17.970949    2.246900    3.199029    -0.000002    -0.000002    3.199032    -0.000003    0.000002    3.199035    -0.000000    1.642837    3.199031    -0.000003    0.000000    3.199030    0.000000    0.000002    3.199022    -0.000003    -1.095223    3.199033    -0.000000    -0.000003    3.199039    0.000003    -0.000000    3.363298    -17.970949    -1.151679    3.199024    -0.000001    0.000003    3.199037    0.000003    0.000002    6.457300    -10.172355    -6.200428    0.000003    13.838807    -0.000004    -14.384480    -10.675434    -31.390850    -0.000000    -0.127589    -0.000003    -12.961295    -5.778607    -15.025651    -0.000001    30.279758    0.000002    10.546127    -24.783367    -8.635843    -0.000000    2.131016    0.000002    
-0.998806    0.905399    -0.229798    2.583726    1.303897    -6.547188    -0.034080    -5.784139    -0.338161    -3.541219    11.934284    0.403415    7.008057    2.182526    14.061167    -4.467276    -23.688841    11.386289    -3.426368    3.687912    -6.075700    -49.910362    -1.268247    0.533537    10.071070    9.747787    -46.369656    76.596146    2.953007    15.646272    26.768980    37.916595    -46.143829    -22.867792    -4.684816    22.867796    -0.000000    0.000000    -0.000000    -3.439467    17.969618    -2.327879    -3.271497    -0.000001    -0.000005    -3.271500    0.000000    -0.000001    -3.271502    0.000001    -1.695074    -3.271501    0.000004    0.000000    -3.271498    -0.000004    -0.000001    -3.271503    0.000001    1.130054    -3.271500    0.000000    0.000002    -3.271501    0.000000    0.000000    -3.439466    -17.969620    1.197836    -3.271499    -0.000004    -0.000002    -3.271503    0.000005    0.000002    -1.704823    6.889732    1.743371    60.287403    29.302795    -6.738034    5.538729    -26.584612    12.226213    -5.906618    -1.021568    -9.934233    -26.768990    37.916599    46.143833    22.867783    -4.684811    -22.867786    -0.000000    0.000000    -0.000000    3.439459    17.969616    2.327890    3.271507    0.000002    -0.000000    3.271497    -0.000002    -0.000002    3.271497    -0.000002    1.695081    3.271500    0.000001    0.000000    3.271503    0.000000    -0.000000    3.271492    -0.000002    -1.130052    3.271505    0.000000    0.000002    3.271504    0.000001    -0.000002    3.439452    -17.969618    -1.197830    3.271506    0.000001    -0.000001    3.271502    0.000002    0.000000    6.853639    -10.691250    -6.491733    -0.000000    14.955181    0.000000    -14.376468    -10.741455    -31.261312    -0.000000    -0.266556    -0.000003    -12.611397    -5.533589    -15.927878    0.000001    30.534645    -0.000001    10.551139    -25.220819    -7.938081    -0.000000    2.134877    0.000005    
